<svg id="Group_2" data-name="Group 2" xmlns="http://www.w3.org/2000/svg" width="366.484" height="79.381" viewBox="0 0 366.484 79.381">
  <g id="Group_1" data-name="Group 1" transform="translate(0)">
    <path id="Path_1" data-name="Path 1" d="M154.641,520.362V442.881c.655-.048,1.305-.138,1.957-.139,12.6,0,25.191-.034,37.787.024a38.328,38.328,0,0,1,15.123,3.039c9.246,3.976,13.951,15.6,9.733,24.116a17.561,17.561,0,0,1-9.313,8.308c-1.519.655-3.124,1.112-5.288,1.868,1.374.383,2.259.6,3.121.876,7.112,2.31,12.829,6.2,14.621,13.89,2.464,10.579-2.971,19.969-13.792,23.313a50.783,50.783,0,0,1-13.685,2.184c-12.894.29-25.8.107-38.7.106C155.758,520.466,155.313,520.409,154.641,520.362ZM169.959,486.5V507.7c8.646,0,17.116.221,25.566-.086,4.772-.174,9.278-1.713,11.188-6.787,2.5-6.656-1.916-13.27-9.716-13.866-7.278-.555-14.615-.347-21.927-.464C173.409,486.475,171.747,486.5,169.959,486.5Zm-.072-11.4c7.73,0,15.2.067,22.662-.044a21.5,21.5,0,0,0,6.043-.972,8.732,8.732,0,0,0,6.364-8.925,8.873,8.873,0,0,0-6.9-8.775,24.442,24.442,0,0,0-5.835-.874c-6.711-.1-13.424-.044-20.137-.034-.727,0-1.454.083-2.2.129Z" transform="translate(-154.641 -442.731)" fill="#fff"/>
    <path id="Path_2" data-name="Path 2" d="M345.547,535.085c-4.9,7.989-12.289,10.688-20.951,10.432-5.6-.166-10.7-1.907-14.077-6.765-5.163-7.437-2.808-17.275,5.619-21.095,5.618-2.547,11.771-3.964,17.736-5.714,3.714-1.09,7.525-1.858,11.249-2.76.817-6.476-1.6-9.319-8.057-9.629-6.745-.323-11.375,2.41-14.194,8.588l-12.927-3.585c3.421-7.993,9.526-12.61,17.5-14.63,7.579-1.919,15.284-2.057,22.649,1.152,5.41,2.357,8.61,6.672,8.931,12.47.443,8.007.335,16.044.461,24.068a11.288,11.288,0,0,1,0,1.136c-.674,7.886,4.165,7.5,8.895,5.26.34-.161.656-.372,1.384-.789.294,3.119.592,6,.8,8.888a1.446,1.446,0,0,1-.713,1.026c-5.648,3.172-12.081,4.154-18.268.607C348.331,541.88,346.53,538.9,345.547,535.085Zm-.521-18.288c-5.417,1.535-10.832,2.985-16.181,4.642a11.232,11.232,0,0,0-4.095,2.359c-3.74,3.4-2.51,9.607,2.2,11.035a13.342,13.342,0,0,0,5.381.509C341.807,534.144,346.786,526.906,345.026,516.8Z" transform="translate(-234.987 -466.896)" fill="#fff"/>
    <path id="Path_3" data-name="Path 3" d="M744.983,519.724h-41c-1.12,5.34,2.907,11.949,8.475,14.18,6.345,2.542,16.628,1.707,21.078-7.773l11.342,4.271a20.454,20.454,0,0,1-9.4,11.46c-10.62,5.777-21.668,6.03-32.423.69-10.349-5.138-14.663-14.261-14.275-25.43.616-17.7,14.377-29.611,32.212-28.254,13.542,1.03,23.3,10.943,23.971,24.4C745.072,515.357,744.983,517.455,744.983,519.724Zm-40.929-7.852h27.039c-.082-7.151-5.322-12.175-12.819-12.431A13.724,13.724,0,0,0,704.054,511.872Z" transform="translate(-434.838 -467.003)" fill="#fff"/>
    <path id="Path_4" data-name="Path 4" d="M505.291,544.621H490.815c-.041-.912-.107-1.72-.108-2.527-.007-8.935.025-17.871-.028-26.806a29.847,29.847,0,0,0-.519-5.867c-.9-4.328-3.286-7.491-7.868-8.44-4.96-1.028-9.423-.013-12.923,3.817-3.024,3.309-4.041,7.394-4.064,11.741-.044,8.481-.014,16.962-.015,25.443v2.6H450.639V490.4h14.518v8.694l.45.16c.369-.489.755-.966,1.1-1.468,6.655-9.591,22.145-12.052,31.37-4.926,5.152,3.98,7.168,9.631,7.311,15.763.275,11.731.093,23.472.092,35.209A4.057,4.057,0,0,1,505.291,544.621Z" transform="translate(-309.92 -466.996)" fill="#fff"/>
    <path id="Path_5" data-name="Path 5" d="M584.956,483.078H574.313V472.549h10.565V458.555l14.365-3.322v17.223h21.438V483H599.963c-.3.366-.473.483-.472.6.016,8.4-.046,16.8.12,25.195.066,3.325,1.607,6.076,5.011,7.146,3.645,1.145,7.189.746,9.95-2.117a65.816,65.816,0,0,0,4.53-5.86l7.209,8.924c-4.37,6.926-10.625,10.869-18.715,11.415a29.439,29.439,0,0,1-10.328-1.257,17.048,17.048,0,0,1-12.237-16.563c-.129-8.178-.059-16.359-.075-24.538C584.954,485.119,584.956,484.294,584.956,483.078Z" transform="translate(-374.799 -449.323)" fill="#fff"/>
    <path id="Path_6" data-name="Path 6" d="M835.643,544.73h-14.9V490.449h14.809v10.259l.435.154q.678-1.075,1.354-2.15c3.854-6.129,9.184-9.808,16.683-9.788,8.487.023,14.773,5.47,16.048,13.837.99,6.5.992,6.5-5.209,8.789-2.131.786-4.271,1.547-6.728,2.436,0-1.28.018-2.365,0-3.45-.146-7.623-6.493-11.592-13.491-8.311-6.141,2.879-8.572,8.331-8.853,14.573-.374,8.314-.129,16.655-.149,24.984C835.641,542.677,835.643,543.571,835.643,544.73Z" transform="translate(-504.077 -467.087)" fill="#fff"/>
  </g>
</svg>
