<svg xmlns="http://www.w3.org/2000/svg" width="21.318" height="21.318" viewBox="0 0 21.318 21.318">
  <path id="iconmonstr-instagram-11_1_" data-name="iconmonstr-instagram-11 (1)" d="M10.659,1.921c2.846,0,3.183.011,4.308.062,2.889.131,4.238,1.5,4.369,4.369.052,1.124.061,1.461.061,4.307s-.011,3.183-.061,4.307c-.132,2.865-1.478,4.238-4.369,4.369-1.125.052-1.46.062-4.308.062s-3.183-.011-4.307-.062c-2.9-.132-4.238-1.509-4.369-4.37-.052-1.124-.062-1.46-.062-4.307s.012-3.183.062-4.307c.132-2.866,1.478-4.238,4.369-4.369,1.125-.051,1.461-.061,4.307-.061Zm0-1.921C7.764,0,7.4.012,6.265.064,2.394.242.242,2.389.065,6.264.012,7.4,0,7.764,0,10.659s.012,3.258.064,4.4c.178,3.871,2.325,6.022,6.2,6.2,1.138.052,1.5.064,4.4.064s3.258-.012,4.4-.064c3.867-.178,6.024-2.325,6.2-6.2.052-1.137.065-1.5.065-4.4s-.012-3.257-.064-4.394C21.08,2.4,18.929.242,15.055.065,13.917.012,13.554,0,10.659,0Zm0,5.186a5.474,5.474,0,1,0,5.473,5.473A5.474,5.474,0,0,0,10.659,5.186Zm0,9.026a3.553,3.553,0,1,1,3.553-3.553A3.553,3.553,0,0,1,10.659,14.212Zm5.69-10.521A1.279,1.279,0,1,0,17.627,4.97,1.28,1.28,0,0,0,16.349,3.691Z" fill="#f4f4f4"/>
</svg>
