<svg id="Group_2" data-name="Group 2" xmlns="http://www.w3.org/2000/svg" width="184.278" height="40.142" viewBox="0 0 184.278 40.142">
  <g id="Group_1" data-name="Group 1" transform="translate(0)">
    <path id="Path_1" data-name="Path 1" d="M154.641,481.987V442.807c.329-.024.656-.07.984-.07,6.333,0,12.667-.017,19,.012a19.178,19.178,0,0,1,7.6,1.537c4.649,2.01,7.015,7.886,4.894,12.2a8.847,8.847,0,0,1-4.683,4.2c-.764.331-1.571.562-2.659.944.691.194,1.136.3,1.569.443,3.576,1.168,6.451,3.134,7.352,7.024,1.239,5.349-1.494,10.1-6.935,11.789a25.4,25.4,0,0,1-6.881,1.1c-6.484.147-12.973.054-19.46.054C155.2,482.04,154.979,482.011,154.641,481.987Zm7.7-17.125v10.724c4.347,0,8.606.112,12.855-.044,2.4-.088,4.665-.866,5.625-3.432,1.259-3.366-.963-6.711-4.885-7.012-3.66-.281-7.349-.176-11.026-.235C164.078,464.851,163.242,464.863,162.343,464.863Zm-.036-5.766c3.887,0,7.642.034,11.4-.022a10.751,10.751,0,0,0,3.039-.492,4.414,4.414,0,0,0,3.2-4.513,4.482,4.482,0,0,0-3.469-4.437,12.225,12.225,0,0,0-2.934-.442c-3.374-.053-6.75-.022-10.125-.017-.366,0-.731.042-1.106.065Z" transform="translate(-154.641 -442.731)"/>
    <path id="Path_2" data-name="Path 2" d="M326.779,512.088c-2.466,4.04-6.179,5.4-10.535,5.275-2.815-.084-5.382-.964-7.078-3.421a7.064,7.064,0,0,1,2.825-10.667,67.131,67.131,0,0,1,8.918-2.89c1.868-.551,3.784-.939,5.656-1.4.411-3.275-.8-4.712-4.051-4.869a6.787,6.787,0,0,0-7.137,4.343l-6.5-1.813a12.346,12.346,0,0,1,8.8-7.4,17.187,17.187,0,0,1,11.389.583,7.037,7.037,0,0,1,4.491,6.306c.223,4.049.168,8.113.232,12.171,0,.191.014.384,0,.574-.339,3.988,2.094,3.792,4.473,2.66.171-.082.33-.188.7-.4.148,1.577.3,3.034.4,4.495a.732.732,0,0,1-.359.519c-2.84,1.6-6.075,2.1-9.186.307A6.584,6.584,0,0,1,326.779,512.088Zm-.262-9.248c-2.724.776-5.446,1.509-8.136,2.347a5.639,5.639,0,0,0-2.059,1.193,3.291,3.291,0,0,0,1.105,5.58,6.673,6.673,0,0,0,2.706.257C324.9,511.612,327.4,507.951,326.517,502.84Z" transform="translate(-271.187 -477.606)"/>
    <path id="Path_3" data-name="Path 3" d="M717.031,504.42H696.417c-.563,2.7,1.462,6.042,4.261,7.171,3.19,1.286,8.361.863,10.6-3.93l5.7,2.16a10.33,10.33,0,0,1-4.725,5.8,16.821,16.821,0,0,1-16.3.349c-5.2-2.6-7.373-7.211-7.178-12.859.31-8.952,7.229-14.974,16.2-14.288a12.684,12.684,0,0,1,12.053,12.338C717.076,502.211,717.031,503.272,717.031,504.42Zm-20.58-3.971h13.6c-.041-3.616-2.676-6.157-6.446-6.286A6.914,6.914,0,0,0,696.451,500.449Z" transform="translate(-561.082 -477.76)"/>
    <path id="Path_4" data-name="Path 4" d="M478.12,517h-7.279c-.021-.461-.054-.87-.055-1.278,0-4.518.012-9.037-.014-13.555a15.18,15.18,0,0,0-.261-2.967,4.953,4.953,0,0,0-3.956-4.268,6.455,6.455,0,0,0-6.5,1.93,8.524,8.524,0,0,0-2.044,5.937c-.022,4.288-.007,8.577-.007,12.866v1.317h-7.367v-27.4h7.3v4.4l.226.081c.185-.247.38-.488.555-.742,3.346-4.85,11.135-6.094,15.774-2.491a9.878,9.878,0,0,1,3.676,7.971c.138,5.932.047,11.869.046,17.8A2.063,2.063,0,0,1,478.12,517Z" transform="translate(-379.882 -477.75)"/>
    <path id="Path_5" data-name="Path 5" d="M579.665,469.314h-5.352V463.99h5.313v-7.077l7.223-1.68v8.709h10.78v5.333H587.211c-.149.185-.238.244-.238.3.008,4.247-.023,8.495.06,12.74a3.568,3.568,0,0,0,2.52,3.613,4.6,4.6,0,0,0,5-1.07,33.271,33.271,0,0,0,2.278-2.963l3.625,4.512a11.6,11.6,0,0,1-9.411,5.772,14.724,14.724,0,0,1-5.193-.636,8.615,8.615,0,0,1-6.153-8.376c-.065-4.135-.03-8.272-.038-12.409C579.664,470.346,579.665,469.928,579.665,469.314Z" transform="translate(-473.992 -452.244)"/>
    <path id="Path_6" data-name="Path 6" d="M828.237,517.144h-7.49V489.7h7.447v5.188l.219.078.681-1.087c1.938-3.1,4.618-4.96,8.389-4.95a7.878,7.878,0,0,1,8.069,7c.5,3.286.5,3.288-2.619,4.445-1.071.4-2.148.782-3.383,1.232,0-.647.009-1.2,0-1.745-.073-3.855-3.265-5.862-6.784-4.2-3.088,1.456-4.31,4.213-4.451,7.369-.188,4.2-.065,8.422-.075,12.634C828.236,516.106,828.237,516.558,828.237,517.144Z" transform="translate(-661.517 -477.882)"/>
  </g>
</svg>
