<svg xmlns="http://www.w3.org/2000/svg" width="21.318" height="18.505" viewBox="0 0 21.318 18.505">
  <path id="iconmonstr-vimeo-1" d="M20.319,9.111C18.15,13.745,12.913,20.054,9.6,20.054c-3.262,0-3.733-6.956-5.514-11.585C3.213,6.19,2.647,6.713,1,7.863L0,6.571C2.4,4.464,4.8,2.017,6.27,1.881q2.489-.238,3.063,3.4c.5,3.191,1.21,8.145,2.441,8.145.959,0,3.323-3.93,3.445-5.335.216-2.057-1.513-2.119-3.013-1.477C14.58-1.158,24.457.274,20.319,9.111Z" transform="translate(-0.002 -1.548)" fill="#f4f4f4"/>
</svg>
